{
    "asset" : {
        "generator" : "Khronos glTF Blender I/O v1.4.40",
        "version" : "2.0"
    },
    "scene" : 0,
    "scenes" : [
        {
            "name" : "Scene",
            "nodes" : [
                0
            ]
        }
    ],
    "nodes" : [
        {
            "mesh" : 0,
            "name" : "Curve",
            "scale" : [
                40.56611633300781,
                40.56611633300781,
                40.56611633300781
            ],
            "translation" : [
                -3.3861894607543945,
                -0.6629753112792969,
                2.37115740776062
            ]
        }
    ],
    "materials" : [
        {
            "doubleSided" : true,
            "name" : "SVGMat",
            "pbrMetallicRoughness" : {
                "baseColorFactor" : [
                    1,
                    1,
                    1,
                    1
                ],
                "metallicFactor" : 0,
                "roughnessFactor" : 0.4000000059604645
            }
        }
    ],
    "meshes" : [
        {
            "name" : "Curve",
            "primitives" : [
                {
                    "attributes" : {
                        "POSITION" : 0,
                        "NORMAL" : 1,
                        "TEXCOORD_0" : 2
                    },
                    "indices" : 3,
                    "material" : 0
                }
            ]
        }
    ],
    "accessors" : [
        {
            "bufferView" : 0,
            "componentType" : 5126,
            "count" : 2002,
            "max" : [
                0.1646748036146164,
                0.019999999552965164,
                -0.0001410841941833496
            ],
            "min" : [
                0.0001411139965057373,
                -0.019999999552965164,
                -0.13925011456012726
            ],
            "type" : "VEC3"
        },
        {
            "bufferView" : 1,
            "componentType" : 5126,
            "count" : 2002,
            "type" : "VEC3"
        },
        {
            "bufferView" : 2,
            "componentType" : 5126,
            "count" : 2002,
            "type" : "VEC2"
        },
        {
            "bufferView" : 3,
            "componentType" : 5123,
            "count" : 3600,
            "type" : "SCALAR"
        }
    ],
    "bufferViews" : [
        {
            "buffer" : 0,
            "byteLength" : 24024,
            "byteOffset" : 0
        },
        {
            "buffer" : 0,
            "byteLength" : 24024,
            "byteOffset" : 24024
        },
        {
            "buffer" : 0,
            "byteLength" : 16016,
            "byteOffset" : 48048
        },
        {
            "buffer" : 0,
            "byteLength" : 7200,
            "byteOffset" : 64064
        }
    ],
    "buffers" : [
        {
            "byteLength" : 71264,
            "uri" : "data:application/octet-stream;base64,"
        }
    ]
}
