<svg width="146" height="24" viewBox="0 0 146 24" fill="none" xmlns="http://www.w3.org/2000/svg">
<path d="M8.06254 0H12.1081V2C11.3673 2 10.6836 2.39437 10.3417 3.07042L6.5526 10.1127C6.23921 10.7042 6.06827 11.3521 6.06827 12C6.06827 12.6479 6.23921 13.2958 6.5526 13.8873L10.3417 20.9296C10.6836 21.5775 11.3673 22 12.1081 22V24H8.06254C6.58108 24 5.21359 23.1831 4.50135 21.8873L0.712239 14.8451C0.227916 13.9718 0 12.9859 0 12.0282C0 11.0704 0.227916 10.0845 0.712239 9.21127L4.50135 2.16902C5.21359 0.788736 6.58108 0 8.06254 0ZM27.5494 9.15493L23.7603 2.11268C23.048 0.816901 21.6805 0 20.1991 0H16.1536V2C16.8943 2 17.578 2.39437 17.9199 3.07042L21.709 10.1127C22.0224 10.7042 22.1934 11.3521 22.1934 12C22.1934 12.6479 22.0224 13.2958 21.709 13.8873L17.9199 20.9296C17.578 21.5775 16.8943 22 16.1536 22V24H20.1706C21.6521 24 23.0196 23.1831 23.7318 21.8873L27.5209 14.8451C28.0052 13.9718 28.2331 12.9859 28.2331 12.0282C28.2616 10.9859 28.0052 10.0282 27.5494 9.15493Z" fill="white"/>
<path d="M70.2744 11.2048V19.5181H66.84V9.03614H61.2327V19.5181H57.7982V5.92772H65.0877C67.9614 5.92772 70.2744 8.24096 70.2744 11.2048ZM51.7704 19.4458H55.2049V5.85542H51.7704V19.4458ZM53.4526 0C52.3312 0 51.42 0.939754 51.42 2.09638C51.42 3.25301 52.3312 4.19276 53.4526 4.19276C54.5741 4.19276 55.4852 3.25301 55.4852 2.09638C55.4852 0.939754 54.5741 0 53.4526 0ZM49.6677 12C49.6677 12.0723 49.6677 12.4337 49.6677 12.7229C49.6677 13.012 49.6677 13.3012 49.6677 13.4458C49.5275 16.7711 46.8641 19.4458 43.5698 19.5181H39.4344V24H36V5.92772H43.5698C46.8641 5.92772 49.5275 8.60241 49.6677 12ZM46.3033 11.7831C46.3033 10.265 45.1118 8.96385 43.5698 8.96385H39.5045V16.3373H43.5698C45.0417 16.3373 46.3033 15.1084 46.3033 13.5181V11.7831ZM124.945 5.92772H117.656V19.5181H121.09V9.03614H126.698V19.5181H130.132V11.2048C130.062 8.24096 127.749 5.92772 124.945 5.92772ZM145.272 13.7349H135.599C135.809 15.6867 136.931 16.7711 138.823 16.8434C140.365 16.8434 141.417 16.265 141.907 15.0361L144.921 16.1928C143.94 18.5783 141.627 19.9518 138.823 19.9518C134.828 19.9518 132.235 17.1325 132.235 12.7229C132.235 8.38554 134.898 5.49398 138.823 5.49398C142.328 5.49398 144.851 7.73495 145.342 11.3494C145.412 11.7831 145.412 12.2169 145.412 12.7229C145.342 13.012 145.342 13.3735 145.272 13.7349ZM141.907 11.2771C141.767 9.3253 140.646 8.45783 138.823 8.38554C137.001 8.45783 135.809 9.39759 135.599 11.2771H141.907ZM115.623 12.6506C115.623 16.9879 112.82 19.8795 108.614 19.8795C104.409 19.8795 101.605 17.0602 101.605 12.6506C101.605 8.31325 104.409 5.42168 108.614 5.42168C112.82 5.49397 115.623 8.31325 115.623 12.6506ZM112.189 12.6506C112.189 10.0482 111.067 8.81928 108.684 8.74699C106.301 8.81928 105.18 10.1205 105.18 12.6506C105.18 15.253 106.301 16.4819 108.684 16.5542C110.997 16.4819 112.189 15.1807 112.189 12.6506ZM85.4841 11.2771C85.5542 11.7108 85.5542 12.1446 85.5542 12.6506C85.5542 13.012 85.5542 13.3735 85.4841 13.6626H75.8116C76.0219 15.6144 77.1433 16.6988 79.0357 16.7711C80.5777 16.7711 81.6291 16.1928 82.1198 14.9639L85.1337 16.1205C84.1524 18.506 81.8394 19.8795 79.0357 19.8795C75.0406 19.8795 72.4472 17.0602 72.4472 12.6506C72.4472 8.31325 75.1107 5.42168 79.0357 5.42168C82.4702 5.49397 84.9935 7.73494 85.4841 11.2771ZM82.1198 11.2771C81.9796 9.3253 80.8581 8.45783 79.0357 8.38554C77.2134 8.45783 76.0219 9.39759 75.8116 11.2771H82.1198ZM94.2455 8.6747C95.7875 8.74698 96.8388 9.253 97.3295 10.3373L100.484 9.18073C99.3621 6.86748 97.1192 5.49398 94.2455 5.49398C90.04 5.49398 87.2364 8.31325 87.2364 12.7229C87.2364 17.0602 90.04 19.9518 94.2455 19.9518C97.1893 19.9518 99.4322 18.5783 100.484 16.2651L97.2594 15.0361C96.6986 16.0482 95.7174 16.5542 94.2455 16.5542C91.8624 16.4819 90.7409 15.253 90.7409 12.6506C90.7409 10.0482 91.8624 8.74698 94.2455 8.6747Z" fill="white"/>
</svg>
